<?xml version="1.0" standalone="no"?>
<!DOCTYPE svg PUBLIC "-//W3C//DTD SVG 20010904//EN"
 "http://www.w3.org/TR/2001/REC-SVG-20010904/DTD/svg10.dtd">
<svg version="1.0" xmlns="http://www.w3.org/2000/svg"
 width="72.000000pt" height="72.000000pt" viewBox="0 0 72.000000 72.000000"
 preserveAspectRatio="xMidYMid meet">

<g transform="translate(0.000000,72.000000) scale(0.100000,-0.100000)"
fill="#000000" stroke="none">
<path d="M0 698 c0 -17 3 -19 9 -9 5 7 15 17 22 22 10 6 8 9 -8 9 -17 0 -23
-6 -23 -22z"/>
<path d="M689 711 c7 -5 17 -15 22 -22 6 -10 9 -8 9 9 0 16 -6 22 -22 22 -17
0 -19 -3 -9 -9z"/>
<path d="M140 607 c-52 -27 -41 -99 16 -105 37 -4 64 19 64 52 0 45 -41 72
-80 53z"/>
<path d="M420 424 c-31 -27 -31 -27 -37 -5 -4 17 -13 21 -49 21 l-44 0 0 -170
0 -170 44 0 43 0 5 110 c5 129 18 153 77 148 50 -4 61 -31 61 -155 l0 -103 51
0 51 0 -4 133 c-3 82 -10 143 -18 160 -29 61 -125 77 -180 31z"/>
<path d="M110 270 l0 -170 50 0 50 0 0 170 0 170 -50 0 -50 0 0 -170z"/>
<path d="M0 23 c0 -17 6 -23 23 -23 16 0 18 3 8 9 -7 5 -17 15 -22 22 -6 10
-9 8 -9 -8z"/>
<path d="M698 19 c-17 -18 -17 -19 2 -19 13 0 20 7 20 20 0 24 0 24 -22 -1z"/>
</g>
</svg>
